# xmcd
#
# Track frame offsets: 
#        150
#        15963
#        30620
#        48197
#        60528
#        72023
#        84356
#        99713
#        119369
#        134143
#        150712
#        164960
#        178692
#        193374
#        207949
#        221686
#        234083
#        253626
#        265889
#        283388
#        302244
#        320033
#        339989
#
# Disc length: 4766 seconds
#
# Revision: 1
# Processed by: cddbd v1.5.2PL0 Copyright (c) Steve Scherf et al.
# Submitted via: ExactAudioCopyFreeDBPlugin 1.0
#
DISCID=5a129c17
DTITLE=Various Artist - The Country Album - CD One
DYEAR=2015
DGENRE=Country
TTITLE0=Kenny Rogers - The Gambler
TTITLE1=Bellamy Brothers - Let Your Love Flow
TTITLE2=Lady Antebellum - Need You Now
TTITLE3=Dolly Parton - 9 to 5
TTITLE4=Johnny Cash - I Walk The Line
TTITLE5=Jace Everett - Bad Things
TTITLE6=Billy Ray Cyrus - Achy Breaky Heart
TTITLE7=The Mavericks - Dance The Night Away
TTITLE8=Olivia Newton John - Take Me Home Country Roads
TTITLE9=John Denver - Leaving on A Jet Plane
TTITLE10=Soggy Bottom Boys - I Am A Man Of Constant Sorrow
TTITLE11=Glen Campbell - Wichita Lineman
TTITLE12=Bob Dylan - Lay Lady Lay
TTITLE13=Doctor Hook - A Little Bit More
TTITLE14=The Highwaymen - Highwayman
TTITLE15=Don Williams - You're My Best Friend
TTITLE16=Alison Krauss and Union Station - When You Say Nothing At All
TTITLE17=Patsy Cline - Crazy
TTITLE18=Robert Plant and Alison Krauss - Please Read The Letter
TTITLE19=Nanci Griffith - From A Distance
TTITLE20=Tom Waits - Ol' '55
TTITLE21=Leann Rimes - How Do I Live
TTITLE22=Kenny Rogers with Sheena Easton - We've Got Tonight
EXTD=
EXTT0=
EXTT1=
EXTT2=
EXTT3=
EXTT4=
EXTT5=
EXTT6=
EXTT7=
EXTT8=
EXTT9=
EXTT10=
EXTT11=
EXTT12=
EXTT13=
EXTT14=
EXTT15=
EXTT16=
EXTT17=
EXTT18=
EXTT19=
EXTT20=
EXTT21=
EXTT22=
PLAYORDER=
